#!OML:ASF F:\VICON\USERDATA\INSTALL\rory3\rory3.ASF
:FULLY-SPECIFIED
:DEGREES
38
root -0.42190282391539946 17.06460050077767 14.970909004302099 1.4343487209479906 3.7442127698792866 1.6648448236021904
lfemur 13.474032066162707 -5.480152952965694 -30.909241848726445
ltibia 38.96221652203369
lfoot -33.24663561134274 1.255969162706827
ltoes 10.832051060578802
rfemur -46.072424762766616 -12.378506198887962 15.70098506315903
rtibia 168.78351903827104
rfoot 8.086097993324417 -8.925371863797258
rtoes -4.697651305836877
lowerback nan 0.3780535400025422 -3.340002847529673
upperback 1.1876895418479876 -0.06548713814440354 -0.05158243389502992
thorax -10.232444061220255 -0.4294497129749646 4.049645016540263
lowerneck -21.976786922476375 -4.501595356213914 -0.9075531676000936
upperneck 10.204360560878019 -6.4741699185514285 5.1927663871977705
head 7.187136452642628 -2.540136195460183 1.280477824927329
lclavicle -8.942231451806324e-15 2.6331472498237236e-14
lhumerus -35.18274361915596 -26.43270407371613 100.7240109335899
lradius 113.29983498352026
lwrist 37.402814710172066
lhand -24.01375951726459 2.58136861880039
lfingers nan
lthumb 2.4948238969343994 32.76053095673978
rclavicle -9.648025605761508e-15 2.6566732449982948e-14
rhumerus -61.19957367844423 6.277936347623162 -103.53518399447154
rradius 93.69870017264682
rwrist -3.1296908348307966
rhand -24.79352890515201 nan
rfingers nan
rthumb 1.6928781605601788 6.2237620561007185
39
root -0.4523752153410451 17.050932725064886 15.250289489294751 2.066956190502352 3.5404360267090595 2.260444245474014
lfemur 14.428036742913328 -5.5900133065414375 -31.57529678500271
ltibia 40.35070930928091
lfoot -34.35718654025586 2.4643388372252835
ltoes 11.675288941227535
rfemur -46.51571345775622 -12.468477231055948 14.884738023953568
rtibia 170.73718564005608
rfoot 7.935370057702933 -6.6499601422663694
rtoes -3.969837455817971
lowerback nan 0.4667809436652345 -4.380064780176145
upperback 1.021206473624964 -0.17295760076214983 -0.1808891343224206
thorax -10.18301219348259 -0.4920919564889268 4.731481890326898
lowerneck -22.36166654866231 -4.380177918562932 -0.8060301525691678
upperneck 10.17232416781083 -6.401253389507504 5.16564772377815
head 7.211192055593004 -2.497791491784901 1.2691610656513905
lclavicle -2.0066629055179143e-14 1.3177867160597033e-14
lhumerus -33.712352037565886 -26.657386517694505 100.40131280983718
lradius 113.6154273512542
lwrist 38.36303950268306
lhand -23.129214895556473 1.7264319970383726
lfingers nan
lthumb 3.3485522433316404 31.902521303224248
rclavicle -2.1029951962933773e-14 1.3305921293857806e-14
rhumerus -61.353171798897215 5.9106852971089365 -103.22802451344062
rradius 92.77078541579247
rwrist -2.430079326354937
rhand -23.205395260702183 nan
rfingers nan
rthumb 3.187744802954736 6.387690862755912
40
root -0.4708710270202369 17.079928969066316 15.703812224415236 2.4516261269483923 2.5989265341982364 3.163792182506845
lfemur 15.971004124585683 -5.1035278946821565 -32.61204048406351
ltibia 41.04477083795109
lfoot -35.71944541301408 4.862681808109662
ltoes 7.127900783640971
rfemur -46.70779975072249 -11.982229496156641 13.803832727484934
rtibia 172.36897013407065
rfoot 8.236960384592681 -3.8435001907629767
rtoes 1.7204628583503874
lowerback nan 0.8228634709600903 -5.66308402142085
upperback 0.78616810202003 0.01693439768252092 -0.5897195857761404
thorax -10.595920965334075 -0.3905234001716278 5.177431623633241
lowerneck -22.42737339793235 -4.323711785951311 -0.8418703613044871
upperneck 10.1955912466643 -6.379910554469367 5.2808782795200155
head 7.226456420678216 -2.4666759958287665 1.3238139370084778
lclavicle 1.335131124648212e-14 -3.579407445671197e-15
lhumerus -32.4286883048305 -26.87960140353077 99.96403644337457
lradius 113.97197990421255
lwrist 38.87703560036747
lhand -22.16182957413588 2.131557599921931
lfingers nan
lthumb 4.2769942318411225 32.28559350977048
rclavicle 1.2497457938648884e-14 -3.4605001621394485e-15
rhumerus -61.64656014009072 5.319321264273311 -102.8662713619905
rradius 92.38598632355058
rwrist -6.732902705858466
rhand -19.637217405658163 nan
rfingers nan
rthumb 6.596260416423858 7.566631002165417
41
root -0.4394664221136205 17.13277884906581 16.772512619755183 2.4259923993722463 1.9102167891040858 4.5346871288049915
lfemur 17.78734989777551 -4.844662324808183 -34.21192026080192
ltibia 41.4252549006152
lfoot -36.37005879188725 6.735790220205867
ltoes 5.907771654927576
rfemur -46.10680370412599 -11.619503401885837 12.080351518551634
rtibia 173.41741460056068
rfoot 8.52265537510423 -0.5690686287352014
rtoes 8.36104146685689
lowerback nan 1.1608159591439406 -7.154389909101921
upperback 0.7796197589421301 0.08224583437025745 -1.266076760366073
thorax -10.749568446363693 -0.3161157058299999 5.547601902064359
lowerneck -22.224770578955635 -4.217861208615433 -0.8038081799940626
upperneck 9.945897330688775 -6.29619071557567 5.334969914468736
head 7.119179264887254 -2.422882396411569 1.361430661637764
lclavicle 1.7326191235987754e-14 -1.4202821867095113e-14
lhumerus -31.087090592701973 -27.10718781528987 99.51912655915851
lradius 114.26025982869227
lwrist 38.94492420814984
lhand -23.897797387520217 4.815017420746176
lfingers nan
lthumb 2.601426213478138 34.98092808972897
rclavicle 1.6519316352050325e-14 -1.4055649010173234e-14
rhumerus -62.11347582996652 4.833148599864195 -102.75120331132003
rradius 92.16461232269158
rwrist -8.408004887415897
rhand -18.394540841963906 nan
rfingers nan
rthumb 7.766889738045361 8.222908913765378
42
root -0.4284020697000888 17.171532207433703 17.212372806933747 2.7364556638062862 1.870430152572189 4.755350514532786
lfemur 18.74456447890368 -4.924854456837343 -34.67253754552635
ltibia 41.57684941338003
lfoot -36.02694268091005 7.782867756319587
ltoes 7.645760859007268
rfemur -46.359251112112936 -11.801695757226321 11.863756251475035
rtibia 173.98167961770088
rfoot 4.553851315062702 -0.4459074311903173
rtoes -5.090749491207279
lowerback nan 1.21019171365067 -7.677543895977351
upperback 0.7242538551833158 -0.056466859564005434 -1.4804335331035696
thorax -10.651050148555692 -0.3753626334193505 5.845949176831791
lowerneck -22.15995130558253 -4.0557520903958215 -0.8449622392389657
upperneck 9.708339776838052 -6.11558619800614 5.35786817098262
head 7.019524563797655 -2.3366852055187928 1.4083166400411822
lclavicle -2.5717645858515068e-14 -9.56264146516068e-15
lhumerus -29.63493372979039 -27.214780746023962 99.03793591363115
lradius 114.49594520886454
lwrist 38.76666187628716
lhand -24.770216997576245 5.304327150403115
lfingers nan
lthumb 1.776352040293336 35.48145823824334
rclavicle -2.664295622755097e-14 -9.428276314163901e-15
rhumerus -62.4662131478335 4.706450050138256 -102.43725991517505
rradius 91.91235255905858
rwrist -7.476253277867595
rhand -17.661872560917566 nan
rfingers nan
rthumb 8.541476897134833 8.496664419575197
43
root -0.44243793255608876 17.20706211239622 17.49180559941628 3.3229625190634557 1.7826690060469552 3.5232693433997824
lfemur 18.946868320251664 -5.18323160457076 -33.628710909657634
ltibia 41.74067119474355
lfoot -36.09759195488473 8.898189051709629
ltoes 9.04216351014713
rfemur -47.74374180886863 -11.987283970678325 13.621672949341168
rtibia 174.0977594446166
rfoot 3.617856342630355 0.6140823289680348
rtoes -6.628820015264377
lowerback nan 1.0706008915243834 -6.832713758821855
upperback 0.46878310493355646 -0.13820391875013693 -1.091764829849467
thorax -10.645291802195636 -0.44099493004436763 5.8941031943534155
lowerneck -21.970129140330943 -3.940133634853572 -1.0530194315486687
upperneck 9.389280563550598 -5.905731506608692 5.268333524378496
head 6.878321850626808 -2.270179593563134 1.4326743373140793
lclavicle -1.6860297525117575e-15 4.72889779219794e-15
lhumerus -28.325003987433437 -26.930123444184762 98.6309795873981
lradius 114.90038834114017
lwrist 38.40492469911205
lhand -25.315594786446574 4.56428396705096
lfingers nan
lthumb 1.2527587067841153 34.73474110066165
rclavicle -2.4207771521504206e-15 5.064805637245597e-15
rhumerus -63.00675091187971 4.781691637391804 -101.92090280649191
rradius 92.02433424804673
rwrist -4.778834158726333
rhand -16.690039763687295 nan
rfingers nan
rthumb 9.392805339124388 8.565743746772718
44
root -0.44302885285529314 17.248461218550894 17.302442666467023 3.8557207723679627 1.4617561668998649 2.2772182264392553
lfemur 19.072969715864897 -5.378948186378558 -32.47816830933232
ltibia 41.71209091017972
lfoot -35.98875798279291 9.353007464519798
ltoes 8.862789894043594
rfemur -49.14553522846012 -12.060230345028646 15.380274994391728
rtibia 173.4208947246984
rfoot 2.7075501905262214 1.577337128297577
rtoes -15.602347318483837
lowerback nan 0.9511599519252797 -5.807811832023029
upperback 0.447686224527861 -0.13554107175929309 -0.7009492323643924
thorax -10.193335082276308 -0.45973677091644816 5.668232739955475
lowerneck -22.54790328992043 -3.914365907479135 -1.2118341964839026
upperneck 9.436854212010282 -5.842833199900415 5.181489669157016
head 6.92596600089094 -2.244624093917704 1.4218038784136402
lclavicle -1.071515540543973e-14 -1.2087259305296706e-14
lhumerus -27.029720345729714 -26.58337060759645 98.15763650598811
lradius 115.4984651398888
lwrist 38.01901585093754
lhand -25.213776528314636 5.05437925574669
lfingers nan
lthumb 1.3488166512048514 35.23107307534416
rclavicle -1.1380230582707946e-14 -1.164577435422102e-14
rhumerus -63.39748097024876 4.9276611755930535 -101.4374575172258
rradius 92.43198931502958
rwrist -2.6558084598580516
rhand -16.412036899612932 nan
rfingers nan
rthumb 9.654442316129137 8.950265052956265
45
root -0.4175178738525596 17.28927122764221 17.619529373891304 4.103107895900103 1.5036728151153946 1.6061092453306367
lfemur 19.600719667506677 -5.7505488881409565 -31.820252998167646
ltibia 41.42366387931478
lfoot -35.53068832717507 9.352358533070287
ltoes 7.941041499051558
rfemur -50.23024749542374 -12.33665873433613 16.460809451768206
rtibia 172.04819583812667
rfoot 1.8437838751911704 2.4485743753082145
rtoes -17.464464652048168
lowerback nan 0.6359377277119598 -5.343413314460523
upperback 0.5522538716150094 -0.46556627829406483 -0.2382317960390996
thorax -9.698875671987487 -0.6570713216537227 5.888395735188183
lowerneck -23.03516565303674 -3.705230457642567 -1.5822685634927156
upperneck 9.631152379076767 -5.4657472359547405 5.064642791673037
head 6.986641398822723 -2.091009099135589 1.4463633242933764
lclavicle -2.669530476344777e-15 -4.109261145934513e-15
lhumerus -26.015655193921756 -25.798319483501263 97.8134220130348
lradius 116.50587089838697
lwrist 37.84285780252873
lhand -23.669574410785682 5.491430930627251
lfingers nan
lthumb 2.83577590429633 35.68942097360248
rclavicle -2.8908565227116104e-15 -3.3407962213973386e-15
rhumerus -64.00954301320135 5.386469855823709 -100.92846072316416
rradius 93.30894640993972
rwrist -2.8941049225171662
rhand -15.974347254917921 nan
rfingers nan
rthumb 9.96891737478984 9.342163568815797
